<?xml version="1.0" encoding="UTF-8" standalone="no"?>
<svg
   xmlns:dc="http://purl.org/dc/elements/1.1/"
   xmlns:cc="http://creativecommons.org/ns#"
   xmlns:rdf="http://www.w3.org/1999/02/22-rdf-syntax-ns#"
   xmlns:svg="http://www.w3.org/2000/svg"
   xmlns="http://www.w3.org/2000/svg"
   xmlns:sodipodi="http://sodipodi.sourceforge.net/DTD/sodipodi-0.dtd"
   xmlns:inkscape="http://www.inkscape.org/namespaces/inkscape"
   version="1.1"
   viewBox="0 0 100 100"
   xml:space="preserve"
   x="0px"
   y="0px"
   id="svg30"
   sodipodi:docname="logo.svg"
   width="100"
   height="100"
   inkscape:version="0.92.3 (2405546, 2018-03-11)"><metadata
     id="metadata36"><rdf:RDF><cc:Work
         rdf:about=""><dc:format>image/svg+xml</dc:format><dc:type
           rdf:resource="http://purl.org/dc/dcmitype/StillImage" /><dc:title></dc:title></cc:Work></rdf:RDF></metadata><defs
     id="defs34" /><sodipodi:namedview
     pagecolor="#ffffff"
     bordercolor="#666666"
     borderopacity="1"
     objecttolerance="10"
     gridtolerance="10"
     guidetolerance="10"
     inkscape:pageopacity="0"
     inkscape:pageshadow="2"
     inkscape:window-width="1920"
     inkscape:window-height="1017"
     id="namedview32"
     showgrid="false"
     inkscape:zoom="6.808"
     inkscape:cx="26.131022"
     inkscape:cy="43.375441"
     inkscape:window-x="1272"
     inkscape:window-y="892"
     inkscape:window-maximized="1"
     inkscape:current-layer="svg30"
     fit-margin-top="5"
     fit-margin-left="5"
     fit-margin-right="5"
     fit-margin-bottom="5" /><path
     d="M 84.03125,5 68.84375,20.1875 60.6875,12.03125 V 39.3125 H 87.96875 L 79.8125,31.15625 95,15.96875 Z m -38.5,5.09375 -16,16 44.375,44.375 16,-16 -6.5625,-6.53125 -9.4375,9.4375 -31.28125,-31.28125 9.4375,-9.4375 z m -19.4375,19.4375 -16,16 6.5625,6.53125 9.4375,-9.4375 31.28125,31.28125 -9.4375,9.4375 6.53125,6.5625 16,-16 z M 12.03125,60.6875 20.1875,68.84375 5,84.03125 15.96875,95 31.15625,79.8125 39.3125,87.96875 V 60.6875 Z"
     style="overflow:visible;fill:#000000;fill-opacity:1;fill-rule:evenodd;stroke:#ffffff;stroke-opacity:1"
     overflow="visible"
     id="path24"
     inkscape:connector-curvature="0" /></svg>